<svg width="0" height="0" class="hidden">
  <symbol fill="none" xmlns="http://www.w3.org/2000/svg" viewBox="0 0 14 13" id="case">
    <path d="M12.5 3.00001H9.9575C9.83946 2.30101 9.47765 1.66642 8.93626 1.20879C8.39487 0.751159 7.70889 0.500076 7 0.500076C6.29111 0.500076 5.60513 0.751159 5.06374 1.20879C4.52235 1.66642 4.16054 2.30101 4.0425 3.00001H1.5C1.23487 3.00031 0.980694 3.10576 0.793222 3.29323C0.60575 3.4807 0.500298 3.73488 0.5 4.00001V12C0.500298 12.2651 0.60575 12.5193 0.793222 12.7068C0.980694 12.8943 1.23487 12.9997 1.5 13H12.5C12.7651 12.9997 13.0193 12.8943 13.2068 12.7068C13.3942 12.5193 13.4997 12.2651 13.5 12V4.00001C13.4997 3.73488 13.3942 3.4807 13.2068 3.29323C13.0193 3.10576 12.7651 3.00031 12.5 3.00001ZM7 1.50001C7.44327 1.50059 7.87383 1.64814 8.22428 1.91957C8.57472 2.19099 8.82527 2.57097 8.93669 3.00001H5.06331C5.17473 2.57097 5.42528 2.19099 5.77572 1.91957C6.12617 1.64814 6.55673 1.50059 7 1.50001Z" fill="#434343"></path>
  </symbol>
  <symbol fill="none" xmlns="http://www.w3.org/2000/svg" viewBox="0 0 16 13" id="money">
    <path d="M15.529 1.38277C14.5592 0.969668 13.5887 0.8125 12.6187 0.8125C9.5395 0.812246 6.4605 2.39535 3.38125 2.39535C2.609 2.39535 1.83725 2.29582 1.065 2.04699C0.97825 2.01906 0.89125 2.00586 0.80625 2.00586C0.376 2.00586 0 2.34406 0 2.81354V10.869C0 11.1896 0.18075 11.4936 0.471 11.617C1.44075 12.0303 2.41125 12.1875 3.38125 12.1875C6.4605 12.1875 9.53975 10.6044 12.619 10.6044C13.3912 10.6044 14.163 10.7039 14.9352 10.9528C15.022 10.9807 15.109 10.9939 15.194 10.9939C15.6242 10.9939 16.0002 10.6557 16.0002 10.1862V2.13104C16 1.8101 15.8192 1.50643 15.529 1.38277ZM8 8.9375C6.89525 8.9375 6 7.84596 6 6.5C6 5.15379 6.8955 4.0625 8 4.0625C9.1045 4.0625 10 5.15379 10 6.5C10 7.84646 9.10425 8.9375 8 8.9375Z" fill="#434343"></path>
  </symbol>
  <symbol fill="none" xmlns="http://www.w3.org/2000/svg" viewBox="0 0 14 14" id="time">
    <path d="M6.99967 0.333328C3.32367 0.333328 0.333008 3.324 0.333008 7C0.333008 10.676 3.32367 13.6667 6.99967 13.6667C10.6757 13.6667 13.6663 10.676 13.6663 7C13.6663 3.324 10.6757 0.333328 6.99967 0.333328ZM9.19501 10.138L6.33301 7.27599V2.99999H7.66634V6.724L10.1377 9.19533L9.19501 10.138Z" fill="#434343"></path>
  </symbol>
</svg>